<svg xmlns="http://www.w3.org/2000/svg" viewBox="0 0 980 240" role="img" aria-labelledby="title desc">
  <title id="title">MMIPS logo</title>
  <desc id="desc">MMIPS logo with red handprint and white MMIPS letters in the palm.</desc>
  <rect width="980" height="240" rx="42" fill="#100f0d"/>
  <defs>
    <filter id="paintRough" x="-8%" y="-8%" width="116%" height="116%">
      <feTurbulence type="fractalNoise" baseFrequency="0.04" numOctaves="3" seed="21" result="noise"/>
      <feDisplacementMap in="SourceGraphic" in2="noise" scale="2.7" xChannelSelector="R" yChannelSelector="G"/>
    </filter>
  </defs>
  <g transform="translate(32 18) scale(.40)" fill="#b81922" filter="url(#paintRough)">
    <path d="M123 290c-24 14-48 11-58-7-10-18 0-43 23-56 18-10 39-10 51 2 12 13 8 44-16 61z"/>
    <path d="M162 221c17-23 51-33 91-28 41 4 83 22 99 53 20 39 6 95-28 128-34 33-90 44-135 24-44-20-73-63-72-105 1-28 17-52 45-72z"/>
    <path d="M139 354c21 30 54 56 98 58 47 3 90-20 112-54 4 34-12 63-41 82-35 23-92 27-135 5-32-17-48-47-34-91z" opacity=".94"/>
    <path d="M164 81c19-5 38 6 43 25l26 91c5 18-6 37-25 42-19 5-38-6-43-25l-26-91c-5-19 6-37 25-42z"/>
    <path d="M239 54c21-2 39 12 41 33l13 107c2 20-13 39-34 41-21 3-39-12-42-33L205 95c-3-20 12-38 34-41z"/>
    <path d="M315 68c20 4 33 23 29 43l-18 94c-4 20-23 33-43 29-20-4-33-23-29-43l18-94c4-20 23-33 43-29z"/>
    <path d="M381 112c18 8 26 29 18 47l-36 81c-8 18-29 26-47 18-18-8-26-29-18-47l36-81c8-18 29-26 47-18z"/>
  </g>
  <text x="134" y="141" text-anchor="middle" font-family="Arial Black, Arial, Helvetica, sans-serif" font-size="25" font-weight="900" fill="#fff8ef" letter-spacing=".7">MMIPS</text>
  <text x="274" y="101" font-family="Arial Black, Arial, Helvetica, sans-serif" font-size="64" font-weight="900" fill="#fff8ef" letter-spacing="1.2">MMIPS</text>
  <text x="276" y="143" font-family="Arial, Helvetica, sans-serif" font-size="24" font-weight="800" fill="#d7a84f" letter-spacing="2">MISSING &amp; MURDERED INDIGENOUS PEOPLE SEARCH</text>
  <text x="276" y="178" font-family="Arial, Helvetica, sans-serif" font-size="20" fill="#cdbfae">Search. Share. Alert. Map.</text>
</svg>
